<?xml version="1.0" encoding="utf-8"?>
<!-- Generator: Adobe Illustrator 16.0.0, SVG Export Plug-In . SVG Version: 6.00 Build 0)  -->
<!DOCTYPE svg PUBLIC "-//W3C//DTD SVG 1.1//EN" "http://www.w3.org/Graphics/SVG/1.1/DTD/svg11.dtd">
<svg version="1.1" id="Layer_1" xmlns="http://www.w3.org/2000/svg" xmlns:xlink="http://www.w3.org/1999/xlink" x="0px" y="0px"
	 width="576px" height="360px" viewBox="0 0 576 360" enable-background="new 0 0 576 360" xml:space="preserve">
<g>
	<g>
		<text transform="matrix(1 0 0 1 137.5728 268.6973)" fill="#555B55" font-family="'AbeatbyKai'" font-size="73.8623">Soulphia</text>
	</g>
	<g>
		<g>
			<g>
				<path fill="#059E4C" d="M357.511,140.388c0,0-26.883-12.197-47.122-5.876l47.701,41.544c0,0,16.633-7.948,42.375,1.908
					L357.511,140.388z"/>
				<path fill="#059E4C" d="M316.954,147.928l-6.635,2.427l48.183,41.96c0,0,11.892-7.891,34.891-10.458
					c0,0-17.578-5.771-37.222,0.061L316.954,147.928z"/>
				<path fill="#09B553" d="M315.783,163.314l-5.019,3.835l48.464,42.208c0,0,14.506-14.155,33.875-21.399
					c0,0-17.051-0.612-35.801,11.688L315.783,163.314z"/>
			</g>
			<g>
				<path fill="#059E4C" d="M369.872,126.201c0,0-15.76-24.96-12.267-45.871l47.676,41.567c0,0-5.598,17.564,7.691,41.716
					L369.872,126.201z"/>
				<path fill="#059E4C" d="M371.791,84.995l1.495-6.902l48.161,41.986c0,0-6.192,12.86-5.592,35.995c0,0-8.118-16.625-5.027-36.881
					L371.791,84.995z"/>
				<path fill="#09B553" d="M386.874,81.727l3.111-5.493l48.442,42.233c0,0-12.041,16.305-16.565,36.482
					c0,0-2.938-16.805,6.685-37.06L386.874,81.727z"/>
			</g>
		</g>
		<path fill="#555B55" d="M413.949,177.152l-2.377-4.193l-2.093,2.401L413.949,177.152z M403.476,168.065l-4.542-0.589l0.75,3.73
			l9.039,3.851l2.44-2.807l-4.981-8.395l-3.789-0.149L403.476,168.065z M340.021,79.275c-0.902-0.14-1.919,1.55-2.27,3.776
			c-0.299,1.925,0.003,3.619,0.678,4.134c0.024,3.595,0.674,21.43,11.971,32.794c-0.391,0.25-0.772,0.577-1.138,1
			c-0.29,0.329-0.513,0.657-0.696,0.982c-12.804-9.575-30.504-7.774-34.061-7.306c-0.604-0.594-2.322-0.661-4.189-0.101
			c-2.153,0.65-3.688,1.885-3.429,2.765c0.269,0.877,2.23,1.065,4.387,0.417c1.636-0.493,2.911-1.323,3.316-2.079
			c0.116-0.014,0.241-0.032,0.391-0.049c4.18-0.524,21.172-1.867,33.191,7.312c-0.817,2.983,2.19,5.386,2.19,5.386l48.439,42.338
			l-0.817-4.054l4.487,0.583l-1.064-4.266l4.155,0.167l-49.242-42.562c0,0-2.446-1.821-4.957-0.993
			c-6.022-5.906-9.021-13.792-10.501-20.388c-0.79-3.527-1.146-6.673-1.302-8.937c-0.086-1.133-0.11-2.044-0.122-2.672
			c-0.004-0.146-0.004-0.273-0.004-0.39c0.689-0.509,1.34-1.886,1.602-3.57C341.381,81.338,340.927,79.421,340.021,79.275z"/>
	</g>
</g>
</svg>
